<svg width="100" height="82" viewBox="0 0 100 82" fill="none" xmlns="http://www.w3.org/2000/svg">
<mask id="path-1-inside-1_153_3" fill="white">
<path d="M98.781 51.211C98.5427 50.7813 98.2029 50.4258 97.8435 50.1016C97.3201 49.625 96.7576 49.0938 96.2263 48.6328C96.113 48.539 95.6365 48.0937 95.531 48.0156C94.031 46.7265 91.5857 46.8828 90.2732 48.3594C90.0545 48.5976 89.6365 49.0625 89.4177 49.3047C87.7888 51.2539 85.7732 52.7109 83.2693 53.5C82.9139 53.6015 82.5584 53.6953 82.199 53.7812C82.1834 53.7265 82.1678 53.6718 82.1522 53.6172C82.0311 53.1718 81.8826 52.7226 81.6639 52.3125C80.8748 50.7773 79.3514 49.6953 77.6717 49.3242C76.7654 48.8788 75.8631 48.4413 74.9022 48.082C73.285 47.4804 71.5506 47.1132 69.8202 46.9453L68.8202 46.8359C67.2929 46.664 65.7577 46.5039 64.2264 46.3476C64.9295 45.1679 65.6209 43.9882 66.3123 42.8593C66.781 42.0585 68.1248 39.8124 68.5662 39.0546C68.8201 38.6171 69.1091 38.1523 69.3279 37.703C70.8982 34.6483 71.4021 31.0663 70.6717 27.7147C70.3709 25.9413 69.3436 24.3085 67.8944 23.2616C67.9569 21.0038 67.8944 18.7616 67.5272 16.5233C66.7616 12.1444 64.7889 7.98421 61.9334 4.57831C61.4334 3.96893 60.8396 3.35171 60.3123 2.77361C60.0896 2.54705 59.8514 2.26189 59.6092 2.05095C58.1326 0.699345 55.7303 0.621246 54.1639 1.85564C53.6326 2.2697 53.0936 2.69938 52.5741 3.12903C52.1874 3.43372 51.8241 3.76965 51.5507 4.18373C50.2851 5.98843 50.7108 8.52353 52.4804 9.82823C53.5742 10.7228 54.6913 11.6251 55.8046 12.4884C57.414 13.6681 58.3984 15.59 58.4999 17.6017L58.5038 17.9377V18.1096C58.496 18.2267 58.4842 18.5002 58.4764 18.6213L58.4335 18.965C58.3592 19.4494 58.2811 19.9299 58.203 20.4103C54.1288 20.3009 50.1483 23.0861 48.8671 27.0119C48.8007 27.1916 48.6757 27.5588 48.6171 27.7424C48.414 28.3518 48.1405 29.1955 47.9179 29.7893C47.2812 31.5705 46.5156 33.3987 45.6991 35.1018C44.246 38.1565 42.5194 41.0784 40.5468 43.8284C34.7577 42.9925 28.9018 42.1878 23.1678 41.469L21.1795 41.219L20.1873 41.0979C20.117 41.0901 19.9998 41.0745 19.9256 41.0706C19.3865 41.0237 18.8318 41.0862 18.3201 41.2737C15.531 42.2815 15.0232 46.0549 17.4099 47.7581C21.3318 50.6175 25.4333 53.2347 29.6759 55.594C28.965 56.2737 28.3048 56.8987 27.7931 57.387C25.0587 60.0237 22.1095 62.5198 19.0079 64.7151C14.1641 68.1839 8.9029 71.0276 3.3749 73.2542C3.22646 73.3167 2.92178 73.4417 2.78115 73.5003C0.956954 74.219 0.148354 76.4456 1.06635 78.1722C1.51166 79.055 2.37885 79.7034 3.33975 79.9066C6.08195 80.5472 8.87885 80.9886 11.6914 81.0941C17.9336 81.3597 24.1994 80.0863 29.9104 77.5863C37.3635 74.4691 44.2544 70.0121 50.1684 64.5123C55.6918 66.2935 61.3484 67.6217 66.9654 69.0748C69.8756 69.817 72.9693 69.7701 75.8404 68.9459C76.5396 68.7271 77.2779 68.4849 78.0045 68.2428C78.1255 68.2428 78.2466 68.2349 78.3677 68.2271C79.9849 68.0904 81.3989 67.1802 82.1411 65.8209C82.2427 65.6491 82.3521 65.3678 82.4302 65.1842C82.7427 64.4733 83.0239 63.7194 82.9849 62.9381C82.9693 62.6061 82.9146 62.2897 82.8326 61.9772C83.8326 62.0553 84.8403 62.1178 85.8403 62.0826C88.0825 61.9654 90.2973 61.2858 92.2192 60.1138C93.477 59.3209 94.7075 58.4419 95.9262 57.5982C96.3403 57.3092 97.3559 56.5865 97.7465 56.3013C99.2973 55.149 99.781 52.8672 98.781 51.211ZM19.472 45.9141C19.4642 45.9141 19.4212 45.9063 19.4564 45.9102C19.4642 45.9102 19.4798 45.9102 19.4876 45.9141C19.4837 45.9102 19.4759 45.9141 19.472 45.9141ZM93.656 51.6094C93.6169 51.6563 93.5701 51.6953 93.5232 51.7305C93.5545 51.707 93.5779 51.6836 93.5935 51.6641C93.6169 51.6485 93.6443 51.6172 93.656 51.6094ZM55.246 6.5154L55.1757 6.44508L55.1444 6.40993C55.2187 6.44118 55.2694 6.49586 55.2968 6.56618L55.246 6.5154ZM58.0624 9.4451C57.2187 8.53885 56.3476 7.63649 55.4765 6.74979C55.8437 6.49588 56.2617 6.1951 56.6249 5.93729C57.1483 6.51932 57.7187 7.13259 58.2108 7.71459C60.6639 10.613 62.621 13.9412 64.0194 17.488C64.621 19.0349 65.0975 20.6169 65.6132 22.195C64.5273 21.8434 62.6601 21.2653 61.9218 21.0153C61.9062 21.0075 61.8906 21.0075 61.871 21.0075C61.8632 21.0075 61.8554 20.9997 61.8476 20.9997C61.1562 20.8669 60.3515 20.6676 59.5898 20.5426C59.7773 20.1911 59.9648 19.8395 60.1288 19.4879C61.7265 16.0348 60.7421 12.0545 58.0624 9.4451ZM49.8749 31.9761C50.2343 30.7964 50.5624 29.5386 50.8437 28.3355C51.6796 23.8433 55.7265 21.0035 60.2734 21.5699C60.2734 21.5699 61.4922 21.6636 61.7109 21.6793L64.3828 22.8395L65.7344 23.4215C66.9375 23.9449 67.9532 24.9332 68.5 26.1129C68.8906 26.9176 69 27.8043 69.0781 28.691C69.289 31.441 68.6484 34.2027 67.2422 36.5504C66.3945 37.902 64.8672 40.0348 63.9766 41.3668C61.2539 45.2965 58.6133 49.5895 55.543 53.2498C55.418 53.3982 55.293 53.5467 55.168 53.699L54.2149 52.949C52.9024 51.9099 51.961 50.5193 51.4805 48.9607V48.9529C51.4805 48.9451 51.4765 48.9412 51.4726 48.9373C51.2578 48.2342 51.1367 47.4959 51.1172 46.742L51.039 43.5467C50.9922 41.5975 50.3047 39.6795 49.1093 38.1483L48.1328 36.8983C48.789 35.2772 49.3749 33.6402 49.8749 31.9761ZM39.2659 67.6171L10.7429 75.2577C13.2117 74.0233 15.6179 72.6561 17.9382 71.16L44.3132 64.0936C42.6843 65.3436 41.0003 66.5195 39.2659 67.6171ZM47.6995 37.9221L48.3362 38.7385C48.5472 39.0119 48.7386 39.2932 48.9143 39.5862L46.6604 40.1877C47.0237 39.4416 47.3674 38.6838 47.6995 37.9221ZM43.9612 45.1018L50.055 43.469C50.055 43.5002 50.0589 43.5315 50.0589 43.5588L50.1097 45.6213L42.2425 47.7307C42.8441 46.8753 43.4143 45.9963 43.9612 45.1018ZM46.0745 41.3596L49.3714 40.4768C49.6527 41.1174 49.8519 41.7971 49.9652 42.4885L44.6879 43.9026C45.1683 43.0627 45.6331 42.219 46.0745 41.3596ZM41.3518 48.9846L50.137 46.633L50.1409 46.7619C50.1565 47.4338 50.2503 48.0939 50.4065 48.7307L39.2035 51.7307C39.9457 50.8362 40.6643 49.9221 41.3518 48.9846ZM38.0706 53.0471L50.6876 49.6682C50.9298 50.3401 51.2579 50.9807 51.6485 51.5784L35.3365 55.9495C36.2467 55.0159 37.2346 53.9924 38.0706 53.0471ZM34.0003 57.3166L52.2853 52.4182C52.6798 52.8869 53.1212 53.3244 53.6134 53.7112L54.1056 54.1018L31.1216 60.258C32.1021 59.258 33.1487 58.1838 34.0003 57.3166ZM46.2303 62.5705L20.4103 69.4885C20.8673 69.1643 21.3244 68.8362 21.7736 68.5041C22.7814 67.7541 23.7775 66.965 24.758 66.1564L49.75 59.4611C48.6133 60.5314 47.4373 61.5705 46.2303 62.5705ZM51.1795 58.0627L26.4915 64.676C27.2571 64.0041 28.0071 63.3205 28.7415 62.6252C29.0188 62.3596 29.3665 62.0197 29.7532 61.633L53.9052 55.1603C53.0224 56.1564 52.117 57.1252 51.1795 58.0627ZM23.9915 46.4687C28.3509 46.9999 32.8353 47.5195 37.2645 47.9921C36.4325 48.953 35.5692 49.8905 34.6747 50.7968C34.2606 51.203 33.7372 51.7109 33.163 52.2616C30.0224 50.4569 26.9642 48.5234 23.9915 46.4687ZM29.4681 72.7417C28.4603 73.1987 27.1908 73.6401 26.1595 74.0542C21.3392 75.8003 16.1595 76.5308 11.0505 76.187L36.1835 69.4526C34.0077 70.6714 31.7649 71.7729 29.4681 72.7417ZM71.2731 67.8355C70.0153 67.6832 68.7809 67.3824 67.609 66.9605C63.8473 65.5855 60.0426 64.2496 56.273 62.9214C55.1792 62.5347 54.0855 62.1323 52.9996 61.7144C53.5035 61.191 53.9996 60.6558 54.484 60.1128C55.4684 59.0269 56.441 57.8706 57.3746 56.6909L59.4762 58.355C60.3825 59.0737 60.9684 60.1441 61.0778 61.2964L61.2887 63.4839C61.3122 63.7339 61.5231 63.9253 61.777 63.9253H61.8239C62.0934 63.9019 62.2887 63.6597 62.2614 63.3941L62.0505 61.2066C61.9137 59.7925 61.1989 58.4761 60.0817 57.5933L57.9723 55.9214C58.7144 54.9526 59.4254 53.9683 60.0895 52.9839C60.9371 51.7495 61.7614 50.4527 62.5661 49.1245C63.9528 49.1205 65.3395 49.1166 66.7067 49.101L70.6989 49.0463C71.5309 49.0463 72.363 49.101 73.1911 49.2104C72.0973 49.4604 71.0817 50.0659 70.3395 50.9565C69.9801 51.3549 69.691 51.9409 69.4293 52.4096C69.1324 52.9565 68.5465 54.0698 68.2574 54.6244C68.2105 54.7259 67.941 55.2338 67.898 55.3197C66.7027 57.64 66.7964 60.5619 68.1519 62.8041C68.3551 63.1479 68.6676 63.6049 68.8941 63.9408C69.0113 64.1127 69.316 64.558 69.4293 64.726C70.5934 66.4369 72.3512 67.5229 74.3121 67.8979C73.2965 67.9682 72.2731 67.9527 71.2731 67.8355ZM90.8201 55.6015C90.1795 56.1327 89.4998 56.707 88.781 57.1288C87.5622 57.8788 86.1716 58.41 84.7498 58.6757C84.0545 58.7968 83.3318 58.8866 82.6326 59.0038C80.2107 59.3944 77.8162 59.8241 75.4178 60.4413C75.0428 60.5351 75.0819 61.0741 75.4491 61.1366C77.4022 61.4647 79.3514 61.6679 81.3007 61.8319C81.3866 61.8397 81.4725 61.8476 81.5585 61.8515C81.5077 62.0468 81.4569 62.2421 81.3944 62.4296C81.2421 62.828 80.996 63.1952 80.6717 63.4608C80.4999 63.6405 80.2889 63.8514 80.121 64.035C79.6991 64.5155 78.8905 64.7303 78.3476 64.5506C78.0976 64.4608 77.7148 64.3319 77.4804 64.2694C76.8319 64.0585 75.7773 63.7928 75.2265 63.5975C74.539 63.3241 73.9374 62.8319 73.539 62.2264L72.3515 60.3202C71.789 59.3671 71.7499 58.1561 72.2187 57.1561C72.6874 56.035 73.2499 54.6483 73.6835 53.5155C73.8358 53.1874 74.1991 52.8827 74.6014 52.7889C74.7616 52.7655 75.2889 52.6796 75.453 52.6561L76.6952 52.4374C78.1132 52.0936 79.6522 52.6522 80.6249 53.7382C80.7226 53.8515 80.8202 53.9647 80.914 54.0819C79.8242 54.3241 78.7304 54.5663 77.6601 54.9179C77.5429 54.9569 77.4452 55.0507 77.4179 55.1835C77.3749 55.3788 77.496 55.5702 77.6913 55.6132C78.6718 55.8319 79.6483 55.9882 80.6249 56.1288C84.3905 56.8163 87.9843 56.1132 91.0979 53.8319C91.7463 53.3514 92.3713 52.7772 92.9729 52.2264C93.2854 52.5233 93.6057 52.8202 93.9221 53.117C92.8987 53.9256 91.8045 54.7968 90.8201 55.6015ZM94.8045 52.4374C94.8045 52.4374 94.7537 52.4765 94.742 52.4843C94.7693 52.4608 94.7967 52.4374 94.8318 52.414C94.8397 52.414 94.8162 52.4296 94.8045 52.4374Z"/>
</mask>
<path d="M98.781 51.211C98.5427 50.7813 98.2029 50.4258 97.8435 50.1016C97.3201 49.625 96.7576 49.0938 96.2263 48.6328C96.113 48.539 95.6365 48.0937 95.531 48.0156C94.031 46.7265 91.5857 46.8828 90.2732 48.3594C90.0545 48.5976 89.6365 49.0625 89.4177 49.3047C87.7888 51.2539 85.7732 52.7109 83.2693 53.5C82.9139 53.6015 82.5584 53.6953 82.199 53.7812C82.1834 53.7265 82.1678 53.6718 82.1522 53.6172C82.0311 53.1718 81.8826 52.7226 81.6639 52.3125C80.8748 50.7773 79.3514 49.6953 77.6717 49.3242C76.7654 48.8788 75.8631 48.4413 74.9022 48.082C73.285 47.4804 71.5506 47.1132 69.8202 46.9453L68.8202 46.8359C67.2929 46.664 65.7577 46.5039 64.2264 46.3476C64.9295 45.1679 65.6209 43.9882 66.3123 42.8593C66.781 42.0585 68.1248 39.8124 68.5662 39.0546C68.8201 38.6171 69.1091 38.1523 69.3279 37.703C70.8982 34.6483 71.4021 31.0663 70.6717 27.7147C70.3709 25.9413 69.3436 24.3085 67.8944 23.2616C67.9569 21.0038 67.8944 18.7616 67.5272 16.5233C66.7616 12.1444 64.7889 7.98421 61.9334 4.57831C61.4334 3.96893 60.8396 3.35171 60.3123 2.77361C60.0896 2.54705 59.8514 2.26189 59.6092 2.05095C58.1326 0.699345 55.7303 0.621246 54.1639 1.85564C53.6326 2.2697 53.0936 2.69938 52.5741 3.12903C52.1874 3.43372 51.8241 3.76965 51.5507 4.18373C50.2851 5.98843 50.7108 8.52353 52.4804 9.82823C53.5742 10.7228 54.6913 11.6251 55.8046 12.4884C57.414 13.6681 58.3984 15.59 58.4999 17.6017L58.5038 17.9377V18.1096C58.496 18.2267 58.4842 18.5002 58.4764 18.6213L58.4335 18.965C58.3592 19.4494 58.2811 19.9299 58.203 20.4103C54.1288 20.3009 50.1483 23.0861 48.8671 27.0119C48.8007 27.1916 48.6757 27.5588 48.6171 27.7424C48.414 28.3518 48.1405 29.1955 47.9179 29.7893C47.2812 31.5705 46.5156 33.3987 45.6991 35.1018C44.246 38.1565 42.5194 41.0784 40.5468 43.8284C34.7577 42.9925 28.9018 42.1878 23.1678 41.469L21.1795 41.219L20.1873 41.0979C20.117 41.0901 19.9998 41.0745 19.9256 41.0706C19.3865 41.0237 18.8318 41.0862 18.3201 41.2737C15.531 42.2815 15.0232 46.0549 17.4099 47.7581C21.3318 50.6175 25.4333 53.2347 29.6759 55.594C28.965 56.2737 28.3048 56.8987 27.7931 57.387C25.0587 60.0237 22.1095 62.5198 19.0079 64.7151C14.1641 68.1839 8.9029 71.0276 3.3749 73.2542C3.22646 73.3167 2.92178 73.4417 2.78115 73.5003C0.956954 74.219 0.148354 76.4456 1.06635 78.1722C1.51166 79.055 2.37885 79.7034 3.33975 79.9066C6.08195 80.5472 8.87885 80.9886 11.6914 81.0941C17.9336 81.3597 24.1994 80.0863 29.9104 77.5863C37.3635 74.4691 44.2544 70.0121 50.1684 64.5123C55.6918 66.2935 61.3484 67.6217 66.9654 69.0748C69.8756 69.817 72.9693 69.7701 75.8404 68.9459C76.5396 68.7271 77.2779 68.4849 78.0045 68.2428C78.1255 68.2428 78.2466 68.2349 78.3677 68.2271C79.9849 68.0904 81.3989 67.1802 82.1411 65.8209C82.2427 65.6491 82.3521 65.3678 82.4302 65.1842C82.7427 64.4733 83.0239 63.7194 82.9849 62.9381C82.9693 62.6061 82.9146 62.2897 82.8326 61.9772C83.8326 62.0553 84.8403 62.1178 85.8403 62.0826C88.0825 61.9654 90.2973 61.2858 92.2192 60.1138C93.477 59.3209 94.7075 58.4419 95.9262 57.5982C96.3403 57.3092 97.3559 56.5865 97.7465 56.3013C99.2973 55.149 99.781 52.8672 98.781 51.211ZM19.472 45.9141C19.4642 45.9141 19.4212 45.9063 19.4564 45.9102C19.4642 45.9102 19.4798 45.9102 19.4876 45.9141C19.4837 45.9102 19.4759 45.9141 19.472 45.9141ZM93.656 51.6094C93.6169 51.6563 93.5701 51.6953 93.5232 51.7305C93.5545 51.707 93.5779 51.6836 93.5935 51.6641C93.6169 51.6485 93.6443 51.6172 93.656 51.6094ZM55.246 6.5154L55.1757 6.44508L55.1444 6.40993C55.2187 6.44118 55.2694 6.49586 55.2968 6.56618L55.246 6.5154ZM58.0624 9.4451C57.2187 8.53885 56.3476 7.63649 55.4765 6.74979C55.8437 6.49588 56.2617 6.1951 56.6249 5.93729C57.1483 6.51932 57.7187 7.13259 58.2108 7.71459C60.6639 10.613 62.621 13.9412 64.0194 17.488C64.621 19.0349 65.0975 20.6169 65.6132 22.195C64.5273 21.8434 62.6601 21.2653 61.9218 21.0153C61.9062 21.0075 61.8906 21.0075 61.871 21.0075C61.8632 21.0075 61.8554 20.9997 61.8476 20.9997C61.1562 20.8669 60.3515 20.6676 59.5898 20.5426C59.7773 20.1911 59.9648 19.8395 60.1288 19.4879C61.7265 16.0348 60.7421 12.0545 58.0624 9.4451ZM49.8749 31.9761C50.2343 30.7964 50.5624 29.5386 50.8437 28.3355C51.6796 23.8433 55.7265 21.0035 60.2734 21.5699C60.2734 21.5699 61.4922 21.6636 61.7109 21.6793L64.3828 22.8395L65.7344 23.4215C66.9375 23.9449 67.9532 24.9332 68.5 26.1129C68.8906 26.9176 69 27.8043 69.0781 28.691C69.289 31.441 68.6484 34.2027 67.2422 36.5504C66.3945 37.902 64.8672 40.0348 63.9766 41.3668C61.2539 45.2965 58.6133 49.5895 55.543 53.2498C55.418 53.3982 55.293 53.5467 55.168 53.699L54.2149 52.949C52.9024 51.9099 51.961 50.5193 51.4805 48.9607V48.9529C51.4805 48.9451 51.4765 48.9412 51.4726 48.9373C51.2578 48.2342 51.1367 47.4959 51.1172 46.742L51.039 43.5467C50.9922 41.5975 50.3047 39.6795 49.1093 38.1483L48.1328 36.8983C48.789 35.2772 49.3749 33.6402 49.8749 31.9761ZM39.2659 67.6171L10.7429 75.2577C13.2117 74.0233 15.6179 72.6561 17.9382 71.16L44.3132 64.0936C42.6843 65.3436 41.0003 66.5195 39.2659 67.6171ZM47.6995 37.9221L48.3362 38.7385C48.5472 39.0119 48.7386 39.2932 48.9143 39.5862L46.6604 40.1877C47.0237 39.4416 47.3674 38.6838 47.6995 37.9221ZM43.9612 45.1018L50.055 43.469C50.055 43.5002 50.0589 43.5315 50.0589 43.5588L50.1097 45.6213L42.2425 47.7307C42.8441 46.8753 43.4143 45.9963 43.9612 45.1018ZM46.0745 41.3596L49.3714 40.4768C49.6527 41.1174 49.8519 41.7971 49.9652 42.4885L44.6879 43.9026C45.1683 43.0627 45.6331 42.219 46.0745 41.3596ZM41.3518 48.9846L50.137 46.633L50.1409 46.7619C50.1565 47.4338 50.2503 48.0939 50.4065 48.7307L39.2035 51.7307C39.9457 50.8362 40.6643 49.9221 41.3518 48.9846ZM38.0706 53.0471L50.6876 49.6682C50.9298 50.3401 51.2579 50.9807 51.6485 51.5784L35.3365 55.9495C36.2467 55.0159 37.2346 53.9924 38.0706 53.0471ZM34.0003 57.3166L52.2853 52.4182C52.6798 52.8869 53.1212 53.3244 53.6134 53.7112L54.1056 54.1018L31.1216 60.258C32.1021 59.258 33.1487 58.1838 34.0003 57.3166ZM46.2303 62.5705L20.4103 69.4885C20.8673 69.1643 21.3244 68.8362 21.7736 68.5041C22.7814 67.7541 23.7775 66.965 24.758 66.1564L49.75 59.4611C48.6133 60.5314 47.4373 61.5705 46.2303 62.5705ZM51.1795 58.0627L26.4915 64.676C27.2571 64.0041 28.0071 63.3205 28.7415 62.6252C29.0188 62.3596 29.3665 62.0197 29.7532 61.633L53.9052 55.1603C53.0224 56.1564 52.117 57.1252 51.1795 58.0627ZM23.9915 46.4687C28.3509 46.9999 32.8353 47.5195 37.2645 47.9921C36.4325 48.953 35.5692 49.8905 34.6747 50.7968C34.2606 51.203 33.7372 51.7109 33.163 52.2616C30.0224 50.4569 26.9642 48.5234 23.9915 46.4687ZM29.4681 72.7417C28.4603 73.1987 27.1908 73.6401 26.1595 74.0542C21.3392 75.8003 16.1595 76.5308 11.0505 76.187L36.1835 69.4526C34.0077 70.6714 31.7649 71.7729 29.4681 72.7417ZM71.2731 67.8355C70.0153 67.6832 68.7809 67.3824 67.609 66.9605C63.8473 65.5855 60.0426 64.2496 56.273 62.9214C55.1792 62.5347 54.0855 62.1323 52.9996 61.7144C53.5035 61.191 53.9996 60.6558 54.484 60.1128C55.4684 59.0269 56.441 57.8706 57.3746 56.6909L59.4762 58.355C60.3825 59.0737 60.9684 60.1441 61.0778 61.2964L61.2887 63.4839C61.3122 63.7339 61.5231 63.9253 61.777 63.9253H61.8239C62.0934 63.9019 62.2887 63.6597 62.2614 63.3941L62.0505 61.2066C61.9137 59.7925 61.1989 58.4761 60.0817 57.5933L57.9723 55.9214C58.7144 54.9526 59.4254 53.9683 60.0895 52.9839C60.9371 51.7495 61.7614 50.4527 62.5661 49.1245C63.9528 49.1205 65.3395 49.1166 66.7067 49.101L70.6989 49.0463C71.5309 49.0463 72.363 49.101 73.1911 49.2104C72.0973 49.4604 71.0817 50.0659 70.3395 50.9565C69.9801 51.3549 69.691 51.9409 69.4293 52.4096C69.1324 52.9565 68.5465 54.0698 68.2574 54.6244C68.2105 54.7259 67.941 55.2338 67.898 55.3197C66.7027 57.64 66.7964 60.5619 68.1519 62.8041C68.3551 63.1479 68.6676 63.6049 68.8941 63.9408C69.0113 64.1127 69.316 64.558 69.4293 64.726C70.5934 66.4369 72.3512 67.5229 74.3121 67.8979C73.2965 67.9682 72.2731 67.9527 71.2731 67.8355ZM90.8201 55.6015C90.1795 56.1327 89.4998 56.707 88.781 57.1288C87.5622 57.8788 86.1716 58.41 84.7498 58.6757C84.0545 58.7968 83.3318 58.8866 82.6326 59.0038C80.2107 59.3944 77.8162 59.8241 75.4178 60.4413C75.0428 60.5351 75.0819 61.0741 75.4491 61.1366C77.4022 61.4647 79.3514 61.6679 81.3007 61.8319C81.3866 61.8397 81.4725 61.8476 81.5585 61.8515C81.5077 62.0468 81.4569 62.2421 81.3944 62.4296C81.2421 62.828 80.996 63.1952 80.6717 63.4608C80.4999 63.6405 80.2889 63.8514 80.121 64.035C79.6991 64.5155 78.8905 64.7303 78.3476 64.5506C78.0976 64.4608 77.7148 64.3319 77.4804 64.2694C76.8319 64.0585 75.7773 63.7928 75.2265 63.5975C74.539 63.3241 73.9374 62.8319 73.539 62.2264L72.3515 60.3202C71.789 59.3671 71.7499 58.1561 72.2187 57.1561C72.6874 56.035 73.2499 54.6483 73.6835 53.5155C73.8358 53.1874 74.1991 52.8827 74.6014 52.7889C74.7616 52.7655 75.2889 52.6796 75.453 52.6561L76.6952 52.4374C78.1132 52.0936 79.6522 52.6522 80.6249 53.7382C80.7226 53.8515 80.8202 53.9647 80.914 54.0819C79.8242 54.3241 78.7304 54.5663 77.6601 54.9179C77.5429 54.9569 77.4452 55.0507 77.4179 55.1835C77.3749 55.3788 77.496 55.5702 77.6913 55.6132C78.6718 55.8319 79.6483 55.9882 80.6249 56.1288C84.3905 56.8163 87.9843 56.1132 91.0979 53.8319C91.7463 53.3514 92.3713 52.7772 92.9729 52.2264C93.2854 52.5233 93.6057 52.8202 93.9221 53.117C92.8987 53.9256 91.8045 54.7968 90.8201 55.6015ZM94.8045 52.4374C94.8045 52.4374 94.7537 52.4765 94.742 52.4843C94.7693 52.4608 94.7967 52.4374 94.8318 52.414C94.8397 52.414 94.8162 52.4296 94.8045 52.4374Z" fill="url(#paint0_linear_153_3)" stroke="#3272C1" stroke-width="0.4" mask="url(#path-1-inside-1_153_3)"/>
<defs>
<linearGradient id="paint0_linear_153_3" x1="49.995" y1="81.1287" x2="49.995" y2="0.980835" gradientUnits="userSpaceOnUse">
<stop stop-color="#CAD9FF"/>
<stop offset="1" stop-color="#1C2E5C"/>
</linearGradient>
</defs>
</svg>
